<?xml version="1.0" standalone="no"?>
<!DOCTYPE svg PUBLIC "-//W3C//DTD SVG 20010904//EN"
 "http://www.w3.org/TR/2001/REC-SVG-20010904/DTD/svg10.dtd">
<svg version="1.0" xmlns="http://www.w3.org/2000/svg"
 width="559.000000pt" height="559.000000pt" viewBox="0 0 559.000000 559.000000"
 preserveAspectRatio="xMidYMid meet">
<metadata>
Created by potrace 1.14, written by Peter Selinger 2001-2017
</metadata>
<g transform="translate(0.000000,559.000000) scale(0.100000,-0.100000)"
fill="#000000" stroke="none">
<path d="M1585 4980 c-97 -11 -139 -50 -174 -160 -21 -68 -394 -1317 -441
-1480 -15 -52 -51 -169 -78 -260 -198 -650 -210 -691 -218 -739 -5 -29 -1 -55
11 -86 15 -40 37 -61 168 -165 84 -66 175 -138 202 -160 28 -22 122 -97 210
-166 88 -69 176 -138 195 -154 19 -15 103 -81 185 -146 83 -65 179 -141 215
-169 124 -99 406 -321 538 -425 74 -58 173 -136 220 -174 98 -77 120 -88 177
-89 63 0 77 9 341 218 110 87 130 104 249 197 45 35 88 69 95 75 49 40 101 81
230 183 80 63 150 118 155 122 30 25 536 424 565 447 33 24 391 306 433 341
44 36 64 109 49 175 -8 34 -92 316 -198 665 -14 47 -33 108 -41 135 -8 28 -23
77 -34 110 -31 102 -269 896 -288 965 -10 36 -48 166 -85 290 -115 390 -117
395 -188 431 -40 21 -50 21 -1242 22 -660 1 -1223 0 -1251 -3z"/>
</g>
</svg>
